# Blender 4.3.1
# www.blender.org
mtllib door.mtl
o Door
v -0.050000 0.000000 0.750000
v -0.050000 2.636063 0.568031
v -0.050000 0.000000 -0.750000
v -0.050000 2.636063 -0.568031
v 0.050000 0.000000 0.750000
v 0.050000 2.636063 0.568031
v 0.050000 0.000000 -0.750000
v 0.050000 2.636063 -0.568031
v -0.050000 1.863937 0.568031
v -0.050000 1.863937 -0.568031
v 0.050000 1.863937 -0.568031
v 0.050000 1.863937 0.568031
v -0.050000 1.500000 0.750000
v -0.050000 3.000000 0.750000
v -0.050000 3.000000 -0.750000
v 0.050000 3.000000 -0.750000
v 0.050000 3.000000 0.750000
v -0.050000 1.500000 -0.750000
v 0.050000 1.500000 -0.750000
v 0.050000 1.500000 0.750000
vn -0.0000 -0.0000 -1.0000
vn -0.0000 -0.0000 1.0000
vn -0.0000 -1.0000 -0.0000
vn -0.0000 1.0000 -0.0000
vn 1.0000 -0.0000 -0.0000
vn -1.0000 -0.0000 -0.0000
vt 0.500000 0.250000
vt 0.625000 0.250000
vt 0.625000 0.500000
vt 0.500000 0.500000
vt 0.500000 0.750000
vt 0.625000 0.750000
vt 0.625000 1.000000
vt 0.500000 1.000000
vt 0.125000 0.500000
vt 0.375000 0.500000
vt 0.375000 0.750000
vt 0.125000 0.750000
vt 0.875000 0.500000
vt 0.875000 0.750000
vt 0.375000 1.000000
vt 0.375000 0.250000
vt 0.375000 0.000000
vt 0.500000 0.000000
vt 0.594672 0.030328
vt 0.530328 0.030328
vt 0.625000 0.000000
vt 0.594672 0.219672
vt 0.594672 0.719672
vt 0.594672 0.530328
vt 0.530328 0.219672
vt 0.530328 0.530328
vt 0.530328 0.719672
s 0
usemtl Metal
f 18/1/1 15/2/1 16/3/1 19/4/1
f 20/5/2 17/6/2 14/7/2 13/8/2
f 3/9/3 7/10/3 5/11/3 1/12/3
f 16/3/4 15/13/4 14/14/4 17/6/4
f 5/11/2 20/5/2 13/8/2 1/15/2
f 7/10/5 19/4/5 20/5/5 5/11/5
f 3/16/1 18/1/1 19/4/1 7/10/1
f 1/17/6 13/18/6 18/1/6 3/16/6
f 2/19/6 9/20/6 13/18/6 14/21/6
f 4/22/6 2/19/6 14/21/6 15/2/6
f 6/23/5 8/24/5 16/3/5 17/6/5
f 10/25/6 4/22/6 15/2/6 18/1/6
f 8/24/5 11/26/5 19/4/5 16/3/5
f 12/27/5 6/23/5 17/6/5 20/5/5
f 11/26/5 12/27/5 20/5/5 19/4/5
f 9/20/6 10/25/6 18/1/6 13/18/6
f 12/27/4 11/26/4 10/25/4 9/20/4
f 11/26/2 8/24/2 4/22/2 10/25/2
f 8/24/3 6/23/3 2/19/3 4/22/3
f 6/23/1 12/27/1 9/20/1 2/19/1
o Window
v -0.015940 1.747161 0.675982
v -0.015940 2.754939 0.675982
v -0.015940 1.747161 -0.675982
v -0.015940 2.754939 -0.675982
v 0.015940 1.747161 0.675982
v 0.015940 2.754939 0.675982
v 0.015940 1.747161 -0.675982
v 0.015940 2.754939 -0.675982
vn -1.0000 -0.0000 -0.0000
vn -0.0000 -0.0000 -1.0000
vn 1.0000 -0.0000 -0.0000
vn -0.0000 -0.0000 1.0000
vn -0.0000 -1.0000 -0.0000
vn -0.0000 1.0000 -0.0000
vt 0.375000 0.000000
vt 0.625000 0.000000
vt 0.625000 0.250000
vt 0.375000 0.250000
vt 0.625000 0.500000
vt 0.375000 0.500000
vt 0.625000 0.750000
vt 0.375000 0.750000
vt 0.625000 1.000000
vt 0.375000 1.000000
vt 0.125000 0.500000
vt 0.125000 0.750000
vt 0.875000 0.500000
vt 0.875000 0.750000
s 0
usemtl Glass
f 21/28/7 22/29/7 24/30/7 23/31/7
f 23/31/8 24/30/8 28/32/8 27/33/8
f 27/33/9 28/32/9 26/34/9 25/35/9
f 25/35/10 26/34/10 22/36/10 21/37/10
f 23/38/11 27/33/11 25/35/11 21/39/11
f 28/32/12 24/40/12 22/41/12 26/34/12
o Handle
v -0.050751 0.952129 -0.330278
v -0.050751 1.633584 -0.330278
v -0.050751 0.952129 -0.649571
v -0.050751 1.633584 -0.649571
v 0.050751 0.952129 -0.330278
v 0.050751 1.633584 -0.330278
v 0.050751 0.952129 -0.649571
v 0.050751 1.633584 -0.649571
vn -1.0000 -0.0000 -0.0000
vn -0.0000 -0.0000 -1.0000
vn 1.0000 -0.0000 -0.0000
vn -0.0000 -0.0000 1.0000
vn -0.0000 -1.0000 -0.0000
vn -0.0000 1.0000 -0.0000
vt 0.375000 0.000000
vt 0.625000 0.000000
vt 0.625000 0.250000
vt 0.375000 0.250000
vt 0.625000 0.500000
vt 0.375000 0.500000
vt 0.625000 0.750000
vt 0.375000 0.750000
vt 0.625000 1.000000
vt 0.375000 1.000000
vt 0.125000 0.500000
vt 0.125000 0.750000
vt 0.875000 0.500000
vt 0.875000 0.750000
s 0
usemtl Steel
f 29/42/13 30/43/13 32/44/13 31/45/13
f 31/45/14 32/44/14 36/46/14 35/47/14
f 35/47/15 36/46/15 34/48/15 33/49/15
f 33/49/16 34/48/16 30/50/16 29/51/16
f 31/52/17 35/47/17 33/49/17 29/53/17
f 36/46/18 32/54/18 30/55/18 34/48/18
